<svg xmlns="http://www.w3.org/2000/svg" width="539.051" height="307.177" viewBox="0 0 539.051 307.177"><defs><style>.a{fill:#c8ffe4;}.b{fill:#393e5c;}.c{fill:#fbbe17;}.d{fill:#19e07d;}.e{fill:#fff;}.f{fill:#17ae63;}.g{fill:#00849d;}.h{fill:#d3fff6;}.i{fill:#f15a24;}.j{fill:#3e54d3;}.k{fill:#f6c5ae;}.l{fill:#3a3e5c;}.m{fill:#5f37f7;}.n{fill:#c7ffe9;}.o{fill:#fdcf9b;}.p{fill:#1a1a1a;}</style></defs><ellipse class="a" cx="267.597" cy="21.281" rx="267.597" ry="21.281" transform="translate(0 264.614)"/><g transform="translate(107.195 33.742)"><rect class="b" width="320.804" height="222.166" rx="25.528" transform="translate(0 0)"/><path class="b" d="M1894.456,1448.1l-13.477-6.414a2.717,2.717,0,0,0-1.167-.264h-54.526V1428.84h-44.644v12.588h-54.364a2.717,2.717,0,0,0-1.156.258l-13.64,6.414a2.717,2.717,0,0,0,1.156,5.175h180.65A2.716,2.716,0,0,0,1894.456,1448.1Z" transform="translate(-1642.562 -1206.658)"/><path class="a" d="M1856.381,903.112H1574.026v180.006H1868.1V903.112Z" transform="translate(-1560.659 -889.802)"/></g><g transform="translate(408.612 104.034)"><g transform="translate(0 0)"><rect class="c" width="53.107" height="53.107" rx="3.582" transform="translate(37.552) rotate(45)"/><g transform="translate(7.129 7.128)"><path class="b" d="M2375.284,1088.74l-21.71-21.71a8.714,8.714,0,0,0-12.324,0l-21.708,21.71a8.719,8.719,0,0,0,0,12.323l21.71,21.71a8.714,8.714,0,0,0,12.324,0l21.71-21.71a8.712,8.712,0,0,0,0-12.323Zm-1.833,10.492-21.71,21.71a6.271,6.271,0,0,1-8.661,0h0l-21.71-21.71a6.13,6.13,0,0,1,0-8.661l21.708-21.71a6.271,6.271,0,0,1,8.661,0l21.712,21.71a6.121,6.121,0,0,1,0,8.661Z" transform="translate(-2316.991 -1064.477)"/><path class="b" d="M2386.033,1122.053a.916.916,0,0,0,.425.328,3.192,3.192,0,0,0,.813.206,11.324,11.324,0,0,0,2.561,0,3.2,3.2,0,0,0,.825-.206.914.914,0,0,0,.425-.328.991.991,0,0,0,.146-.437l.631-22.04a.943.943,0,0,0-.158-.546,1.178,1.178,0,0,0-.534-.389,4.113,4.113,0,0,0-1.008-.243,12.441,12.441,0,0,0-1.6-.085,14.812,14.812,0,0,0-1.614.073,3.831,3.831,0,0,0-1.019.23.952.952,0,0,0-.667.959l.631,22.04A1,1,0,0,0,2386.033,1122.053Z" transform="translate(-2358.135 -1084.871)"/><path class="b" d="M2391.08,1166.551a2.24,2.24,0,0,0-1.056-.607,6.3,6.3,0,0,0-1.65-.182,6.444,6.444,0,0,0-1.663.182,2.166,2.166,0,0,0-1.056.607,2.419,2.419,0,0,0-.546,1.117,7.844,7.844,0,0,0-.158,1.711,7.545,7.545,0,0,0,.158,1.675,2.329,2.329,0,0,0,.546,1.092,2.214,2.214,0,0,0,1.056.595,6.438,6.438,0,0,0,1.663.182,6.291,6.291,0,0,0,1.65-.182,2.291,2.291,0,0,0,1.056-.595,2.264,2.264,0,0,0,.558-1.092,7.545,7.545,0,0,0,.158-1.675,7.844,7.844,0,0,0-.158-1.711A2.35,2.35,0,0,0,2391.08,1166.551Z" transform="translate(-2357.95 -1125.522)"/></g></g><path class="b" d="M2380.317,1328.289V1227.348h-3.409v100.941c-4.628.154-8.152.915-8.152,1.837,0,1.032,4.413,1.869,9.857,1.869s9.856-.837,9.856-1.869C2388.468,1329.2,2384.944,1328.443,2380.317,1328.289Z" transform="translate(-2341.06 -1155.511)"/></g><path class="d" d="M2139.955,975.731h-5.748a3.072,3.072,0,0,1-2.935-2.127,22.94,22.94,0,0,0-1.489-3.58,3.075,3.075,0,0,1,.564-3.592l4.069-4.07a3.106,3.106,0,0,0,0-4.393l-2.473-2.474a3.107,3.107,0,0,0-4.394,0l-4.07,4.07a3.076,3.076,0,0,1-3.591.565,22.861,22.861,0,0,0-3.58-1.488,3.072,3.072,0,0,1-2.127-2.934v-5.749a3.107,3.107,0,0,0-3.107-3.107h-3.5a3.107,3.107,0,0,0-3.107,3.107v5.749a3.072,3.072,0,0,1-2.127,2.934,22.868,22.868,0,0,0-3.58,1.488,3.076,3.076,0,0,1-3.591-.565l-4.07-4.07a3.107,3.107,0,0,0-4.394,0l-2.474,2.474a3.106,3.106,0,0,0,0,4.393l4.069,4.07a3.076,3.076,0,0,1,.565,3.592,22.893,22.893,0,0,0-1.489,3.58,3.073,3.073,0,0,1-2.935,2.127H2078.7a3.107,3.107,0,0,0-3.107,3.107v3.5a3.107,3.107,0,0,0,3.107,3.107h5.748a3.073,3.073,0,0,1,2.935,2.127,22.9,22.9,0,0,0,1.489,3.581,3.075,3.075,0,0,1-.565,3.591l-4.069,4.07a3.106,3.106,0,0,0,0,4.393l2.474,2.474a3.106,3.106,0,0,0,4.394,0l4.07-4.069a3.075,3.075,0,0,1,3.591-.565,22.89,22.89,0,0,0,3.58,1.489,3.073,3.073,0,0,1,2.127,2.935v5.747a3.107,3.107,0,0,0,3.107,3.107h3.5a3.107,3.107,0,0,0,3.107-3.107v-5.747a3.074,3.074,0,0,1,2.127-2.935,22.89,22.89,0,0,0,3.581-1.489,3.075,3.075,0,0,1,3.591.565l4.07,4.069a3.107,3.107,0,0,0,4.394,0l2.473-2.474a3.106,3.106,0,0,0,0-4.393l-4.069-4.07a3.075,3.075,0,0,1-.564-3.591,22.943,22.943,0,0,0,1.489-3.581,3.072,3.072,0,0,1,2.935-2.127h5.748a3.107,3.107,0,0,0,3.107-3.107v-3.5A3.107,3.107,0,0,0,2139.955,975.731Zm-18.915,7.191a11.944,11.944,0,1,1-14.051-14.049A11.953,11.953,0,0,1,2121.04,982.923Z" transform="translate(-1755.758 -882.422)"/><g transform="translate(435.521 166.624)"><g transform="translate(0 0)"><path class="a" d="M2560.74,1365.7c1.56,2.874,4.918.862,4.918.862s-.193-.946-1.7-1.739a4.593,4.593,0,0,0-3.313.1l-1.853-.048h-.029c-.412.02-.822.053-1.229.092,5.286-1.866,2.795-8.109,2.795-8.109s-1.66.068-3.418,2.411c-1.411,1.88-.856,5.071-.692,5.854a30.8,30.8,0,0,0-6.091,1.54,10.437,10.437,0,0,0,.77-.829c2.015-2.412,1.126-6.988,1.126-6.988-7.216.927-5.78,7.713-5.351,9.271a45.153,45.153,0,0,0-6.523,3.88,9.474,9.474,0,0,0,1.423-3.14c.911-3.4-2.144-7.626-2.144-7.626-7.073,4.45-1.985,10.882-.986,12.031-1.269.98-2.435,1.967-3.483,2.916-1.15,1.041-2.21,2.081-3.173,3.079a9.468,9.468,0,0,0,.364-4.586c-.507-3.812-5.368-6.8-5.368-6.8-5.152,7.3,2.221,11.621,3.948,12.5a60.7,60.7,0,0,0-5.2,6.38l.638.43a54.573,54.573,0,0,1,3.463-4.422c2.731,8.649,12.131,4.252,12.131,4.252s-.233-2.36-3.718-4.673c-2.246-1.491-5.593-1.1-7.395-.739a66.638,66.638,0,0,1,4.836-4.867c.613-.554,1.267-1.122,1.958-1.694,2.42,8.162,11.152,4.079,11.152,4.079s-.213-2.158-3.4-4.274c-2-1.331-4.966-1.026-6.64-.7a47.933,47.933,0,0,1,6.837-4.516c1.494,7.716,9.708,4.606,9.708,4.606s-.045-1.938-2.742-4.037c-1.764-1.373-4.571-1.241-6.045-1.05a33.182,33.182,0,0,1,8.833-3.071c-.131,7,7.449,5.646,7.449,5.646s.268-1.639-1.672-3.834c-1.51-1.708-4.6-1.854-5.516-1.858a26.886,26.886,0,0,1,3.373-.386Z" transform="translate(-2462.128 -1296.157)"/><g transform="translate(28.905)"><path class="b" d="M2448.013,1315.22s-15.731-35.511-4.349-68.508,38.868-42.638,38.868-42.638-16.315,18.891-6.845,48.357c8.957,27.867-8.123,62.79-8.123,62.79Z" transform="translate(-2439.53 -1204.073)"/><path class="e" d="M2474.258,1345.411s-4.029-72.243,13.016-91.244c-15.5,23.951-9.047,91.244-9.047,91.244Z" transform="translate(-2460.21 -1234.265)"/></g><path class="f" d="M2517.377,1444.22h-16.825c.67-2.964,3.091-11.921,9.13-18.677a21.429,21.429,0,0,1,16.592-7.413s-5.034,5.523-5.806,15.449A30.212,30.212,0,0,1,2517.377,1444.22Z" transform="translate(-2447.403 -1333.073)"/><path class="d" d="M2397.845,1359.346c12.25,15.969,15,36.793,15.287,39.278h-23.814c-6.025-5.563-13.412-14.56-13.47-25.383-.1-19.324-9.07-30.784-9.07-30.784S2384.8,1342.337,2397.845,1359.346Z" transform="translate(-2366.777 -1287.477)"/><path class="g" d="M2512.37,1452.043h-1.261c2.4-5.485,8.506-18.34,14.228-20.953C2519.741,1434.843,2514.592,1446.471,2512.37,1452.043Z" transform="translate(-2453.766 -1340.896)"/><path class="h" d="M2425.945,1415.4h-2.473c-2.9-9.589-11.763-36.292-22.95-45.108C2412.076,1376.7,2422.867,1406.333,2425.945,1415.4Z" transform="translate(-2387.115 -1304.253)"/></g><rect class="b" width="70.999" height="2.817" transform="translate(79.775 113.964) rotate(180)"/></g><g transform="translate(116.361 225.121)"><path class="i" d="M1565.778,1474.824h46.4a2.323,2.323,0,0,0,2.118-3.278l-1.081-2.4a2.323,2.323,0,0,0-2.118-1.369h-44.517a2.323,2.323,0,0,0-2.2,1.589l-.8,2.4A2.323,2.323,0,0,0,1565.778,1474.824Z" transform="translate(-1563.453 -1421.506)"/><g transform="translate(8.154)"><path class="e" d="M1623.3,1353.7c-1.062-3.187-4.792-3.187-5.854,0l-2.207,6.619h10.267Z" transform="translate(-1602.82 -1351.309)"/><path class="e" d="M1620.933,1394.794h-15.779l-2.077,6.231h19.933Z" transform="translate(-1595.489 -1377.518)"/><path class="e" d="M1592.99,1431.287l-2.077,6.231h29.6l-2.077-6.231Z" transform="translate(-1588.157 -1399.512)"/><path class="i" d="M1621.328,1373.984h-10.267l-2.756,8.268h15.779Z" transform="translate(-1598.639 -1364.975)"/><path class="i" d="M1618.83,1410.477H1598.9l-2.756,8.268h25.445Z" transform="translate(-1591.308 -1386.97)"/><path class="i" d="M1583.976,1455.238h35.111l-2.756-8.268h-29.6Z" transform="translate(-1583.976 -1408.964)"/></g></g><path class="b" d="M2452.647,936.748h-.073v-2.007a14.847,14.847,0,0,0-29.693,0v2.007h-.072a3.86,3.86,0,0,0-3.861,3.86v25.225a3.86,3.86,0,0,0,3.861,3.86h29.838a3.86,3.86,0,0,0,3.86-3.86V940.608A3.86,3.86,0,0,0,2452.647,936.748Zm-12.3,14.1v11.628h-5.239V950.85a5.17,5.17,0,1,1,5.239,0Zm6.044-14.1h-17.328v-2.007a8.664,8.664,0,0,1,17.328,0Z" transform="translate(-1962.7 -866.176)"/><g transform="translate(138.23 12.878)"><path class="j" d="M1634.883,824.922l7.825,4.28-7.825,4.28-4.28,7.825-4.28-7.825-7.825-4.28,7.825-4.28,4.28-7.825Z" transform="translate(-1618.499 -817.097)"/><path class="j" d="M1693.081,864.923l4.531,2.478-4.531,2.478-2.478,4.531-2.478-4.531-4.531-2.478,4.531-2.478,2.478-4.531Z" transform="translate(-1657.732 -843.191)"/></g><g transform="translate(354.643)"><path class="e" d="M2210.474,792.507l-7.825,4.28,7.825,4.28,4.28,7.825,4.28-7.825,7.825-4.28-7.825-4.28-4.28-7.825Z" transform="translate(-2186.979 -784.682)"/><path class="e" d="M2167.738,832.508l-4.531,2.478,4.531,2.478,2.478,4.531,2.478-4.531,4.531-2.478-4.531-2.478-2.478-4.531Z" transform="translate(-2163.207 -810.776)"/></g><g transform="translate(27.522 44.097)"><g transform="translate(75.227 213.03)"><path class="k" d="M1533.074,1431.869l1.626,2.965c-.3.114-4,1.845-4,1.845l-1.512-3.018Z" transform="translate(-1529.19 -1431.869)"/><path class="b" d="M1536.958,1435.4s10.545.533,10.757.531c.094,0,.568-.094,1.066-.2a1.619,1.619,0,0,1,1.847.944,1.782,1.782,0,0,1,.169.515c-.035.171-16.666,7.691-16.666,7.691s-2.717-5.374-1.931-6S1536.293,1437.625,1536.958,1435.4Z" transform="translate(-1530.919 -1433.998)"/><g transform="translate(11.915 1.702)"><path class="e" d="M1559.344,1436.153l-.165,1.83.665.063.167-1.858Z" transform="translate(-1559.179 -1436.153)"/><path class="e" d="M1562.312,1436.308l-.158,1.749.665.063.16-1.776Z" transform="translate(-1560.972 -1436.246)"/><path class="e" d="M1565.117,1436.454l-.151,1.683.664.063.154-1.712Z" transform="translate(-1562.667 -1436.334)"/></g></g><g transform="translate(5.873 225.682)"><path class="k" d="M1368.946,1465.807l-1.25,3.3c-.28-.177-3.988-2.152-3.988-2.152l1.365-3.241Z" transform="translate(-1360.101 -1463.715)"/><path class="b" d="M1363.769,1473.226s6.344,9.2,6.481,9.38c.06.079.436.416.835.767a1.942,1.942,0,0,1,.164,2.647c-.154.083-16.621-8.971-16.621-8.971s2.412-5.791,3.4-5.537S1361.625,1474.12,1363.769,1473.226Z" transform="translate(-1354.628 -1468.409)"/><g transform="translate(11.26 10.084)"><path class="e" d="M1384.489,1489.1l-1.521,1.057.377.6,1.543-1.073Z" transform="translate(-1382.968 -1489.097)"/><path class="e" d="M1386.367,1491.681l-1.453,1.01.377.6,1.476-1.026Z" transform="translate(-1384.141 -1490.655)"/><path class="e" d="M1388.128,1494.124l-1.4.972.377.6,1.422-.988Z" transform="translate(-1385.235 -1492.127)"/></g></g><g transform="translate(0 0)"><path class="i" d="M1401.247,1198.57s-1.245,1.244-3.225,3.168c-.77.748-1.65,1.6-2.616,2.522-.54.516-1.1,1.047-1.684,1.6-.844.8-1.732,1.633-2.649,2.486-.584.544-1.183,1.1-1.788,1.65-.885.811-1.784,1.629-2.691,2.44q-.7.629-1.407,1.251l-.049-.028c-1.165-.687-2.318-1.343-3.437-1.965l-.614-.341c-1.118-.615-2.189-1.189-3.192-1.715-1.147-.6-2.2-1.14-3.113-1.6-1.554-.781-2.711-1.336-3.259-1.6l-.36-.17c-8.069-2.608-4.947,7.611-4.947,7.611l2.754,1.13,3.685,1.511,3.087,1.266,3.749,1.537,2.108.865,3.884,1.592,1.235.507,4.218-5.159,2.295-2.807,1.6-1.962,2.3-2.808,1.512-1.85,2.3-2.809,2.545-3.112Z" transform="translate(-1355.381 -1078.23)"/><g transform="translate(0 106.312)"><path class="l" d="M1352.808,1177.674c.857-.586,1.967-.525,2.836-.971l-6.035-6.109a9.306,9.306,0,0,1-.79,1.152,42.1,42.1,0,0,1-3.611,3.46,4.426,4.426,0,0,0-1.48,2.4,4.2,4.2,0,0,0,1.343,3.2c.792.894,1.367,1.931,2.123,2.856.585.716.561.758,1.232,1.636a7.177,7.177,0,0,0,2.1,1.793c.482.306,1.474,1.844,2.007,1.612.36-.157-.434-1.365-.377-1.748a2.83,2.83,0,0,0-.122-1.14c-.487-1.843-1.415-3.69-1-5.567A4.3,4.3,0,0,1,1352.808,1177.674Z" transform="translate(-1342.17 -1167.68)"/><rect class="k" width="6.779" height="8.724" transform="translate(17.361 21.879) rotate(157.081)"/><path class="k" d="M1361.414,1181.029s3.537,7.459,1.7,9.632-5.787,1.586-7.206,1.232a5.448,5.448,0,0,1-2.562-2.232s-1.564-.449-1.917-1.375-.8-2.127.3-1.912c1.755.342.824-.073.824-.073a1.953,1.953,0,0,1-.342-2.274C1352.777,1182.472,1359.64,1176.908,1361.414,1181.029Z" transform="translate(-1346.586 -1173.071)"/><path class="c" d="M1344.378,1175.716l14.253-8.484s-.382-1.607-2.747-.381-2.338-4.163-8.382-3.54a8.215,8.215,0,0,0-7.658,7.509c-.026,1.766,2.942,6.037,2.942,6.037Z" transform="translate(-1339.845 -1163.26)"/></g><path class="b" d="M1395.4,1310.475l19.9,10.306,19.963,37.276-6.274,2.992-19.773-29.722-21-6.131-4.714,24.975-14.359,24.547-5.581-2.824,10.71-28.749-.7-27.217Z" transform="translate(-1354.137 -1145.675)"/><path class="i" d="M1389.857,1246.583c-.507-1.038-1.041-2.132-1.587-3.252-.762-1.563-1.546-3.176-2.315-4.764-.536-1.107-1.064-2.2-1.571-3.254-.735-1.528-1.423-2.968-2.028-4.246-.355-.749-.683-1.447-.97-2.066-.192-.413-.4-.812-.6-1.205a27.122,27.122,0,0,0-3.907-5.567,24.21,24.21,0,0,0-2.974-2.781c-1.926-1.5-3.674-2.323-4.728-2.357-5.87,2.534-7.588-.538-7.588-.538a7.232,7.232,0,0,0-1.574,3.74,17.65,17.65,0,0,0-.165,3.65,40.374,40.374,0,0,0,1,6.759c.27,1.205.583,2.436.932,3.681.544,1.941,1.167,3.908,1.834,5.849.42,1.22.854,2.426,1.3,3.607.62,1.656,1.25,3.256,1.868,4.766.517,1.263,1.021,2.458,1.5,3.566,1.924,4.45,3.417,7.464,3.417,7.464l22.085-5.058S1392.069,1251.109,1389.857,1246.583Z" transform="translate(-1351.884 -1089.069)"/><g transform="translate(22.967)"><rect class="d" width="220.126" height="117.63" transform="translate(4.762 84.381) rotate(-16.916)"/><path class="b" d="M1598.31,896.034l-194.8,59.242a8.259,8.259,0,0,0-5.5,10.3l4.4,14.475,210.6-64.048-4.4-14.475A8.259,8.259,0,0,0,1598.31,896.034Z" transform="translate(-1397.653 -895.674)"/><path class="m" d="M1430.192,1062.4a3.555,3.555,0,1,1-4.435-2.367A3.555,3.555,0,0,1,1430.192,1062.4Z" transform="translate(-1413.071 -994.64)"/><path class="i" d="M1460.974,1053.038a3.555,3.555,0,1,1-4.435-2.367A3.555,3.555,0,0,1,1460.974,1053.038Z" transform="translate(-1431.624 -988.998)"/><path class="d" d="M1491.757,1043.677a3.555,3.555,0,1,1-4.436-2.367A3.555,3.555,0,0,1,1491.757,1043.677Z" transform="translate(-1450.176 -983.356)"/><g transform="translate(12.463 27.751)"><rect class="n" width="99.933" height="2.769" transform="translate(104.586 29.077) rotate(-16.916)"/><rect class="n" width="49.967" height="2.769" transform="matrix(0.957, -0.291, 0.291, 0.957, 106.941, 36.823)"/><rect class="n" width="49.967" height="2.769" transform="matrix(0.957, -0.291, 0.291, 0.957, 109.297, 44.569)"/><rect class="n" width="99.933" height="2.769" transform="matrix(0.957, -0.291, 0.291, 0.957, 127.362, 103.969)"/><rect class="n" width="49.967" height="2.769" transform="translate(129.718 111.715) rotate(-16.916)"/><rect class="n" width="49.967" height="2.769" transform="translate(132.073 119.461) rotate(-16.916)"/><rect class="n" width="99.933" height="2.769" transform="matrix(0.957, -0.291, 0.291, 0.957, 120.023, 79.837)"/><rect class="n" width="49.967" height="2.769" transform="translate(122.379 87.583) rotate(-16.916)"/><rect class="n" width="49.967" height="2.769" transform="translate(124.734 95.329) rotate(-16.916)"/><rect class="n" width="99.933" height="2.769" transform="matrix(0.957, -0.291, 0.291, 0.957, 112.304, 54.457)"/><rect class="n" width="49.967" height="2.769" transform="translate(114.66 62.203) rotate(-16.916)"/><rect class="n" width="49.967" height="2.769" transform="translate(117.016 69.949) rotate(-16.916)"/><rect class="n" width="101.317" height="6.913" transform="matrix(-0.957, 0.291, -0.291, -0.957, 98.945, 38.018)"/><rect class="n" width="101.317" height="84.514" transform="matrix(0.957, -0.291, 0.291, 0.957, 3.703, 73.059)"/></g></g><path class="k" d="M1458.16,1198.511a9.752,9.752,0,0,1,1.776-2.213c.594-.31,5.276-2.655,5.559-4.232s-.321-3.965-1.859-3.543-2.085.789-2.585,1.886a21.519,21.519,0,0,1-2.835,3.493l-2.129,2.4Z" transform="translate(-1409.904 -1072.146)"/><path class="i" d="M1403.126,1205.434s-1.245,1.244-3.225,3.168c-.77.748-1.65,1.6-2.616,2.522-.54.516-1.1,1.047-1.684,1.6-.844.8-1.732,1.633-2.649,2.486-.585.544-1.184,1.1-1.788,1.65-.885.811-1.784,1.629-2.691,2.44q-.7.629-1.407,1.251l-.049-.029c-1.165-.687-2.318-1.343-3.437-1.965-.206-.114-.411-.229-.614-.34-1.118-.615-2.189-1.189-3.192-1.715-1.147-.6-2.2-1.14-3.113-1.6-1.554-.781-2.711-1.336-3.259-1.6l-.36-.169c-8.069-2.608-4.947,7.611-4.947,7.611l2.754,1.129,3.685,1.511,3.088,1.266,3.749,1.537,2.108.865,3.883,1.593,1.236.507,4.218-5.159,2.295-2.807,1.6-1.962,2.3-2.807,1.513-1.85,2.3-2.809,2.544-3.112Z" transform="translate(-1356.513 -1082.367)"/></g></g><g transform="translate(198.984 178.152)"><g transform="translate(12.913)"><rect class="b" width="12.913" height="109.133" transform="translate(0 0.48)"/><rect class="b" width="12.913" height="109.133" transform="translate(98.487)"/></g><g transform="translate(0 42.701)"><path class="i" d="M1955.515,1371.494h15.393l11.811-30.927h-15.392Z" transform="translate(-1882.372 -1340.567)"/><path class="i" d="M1864.242,1371.494h15.392l11.812-30.927h-15.393Z" transform="translate(-1827.362 -1340.567)"/><path class="i" d="M1771.416,1371.494h16.009l11.812-30.927h-27.82Z" transform="translate(-1771.416 -1340.567)"/><path class="i" d="M2058.6,1340.567l-11.812,30.927h27.82v-30.927Z" transform="translate(-1937.383 -1340.567)"/><path class="e" d="M1823.521,1340.567l-11.812,30.927h20.871l11.811-30.927Z" transform="translate(-1795.7 -1340.567)"/><path class="e" d="M1914.8,1340.567l-11.812,30.927h20.871l11.812-30.927Z" transform="translate(-1850.712 -1340.567)"/><path class="e" d="M2006.069,1340.567l-11.811,30.927h20.871l11.812-30.927Z" transform="translate(-1905.723 -1340.567)"/></g><g transform="translate(0)"><path class="i" d="M1955.515,1264.016h15.393l11.811-30.927h-15.392Z" transform="translate(-1882.372 -1233.089)"/><path class="i" d="M1864.242,1264.016h15.392l11.812-30.927h-15.393Z" transform="translate(-1827.362 -1233.089)"/><path class="i" d="M1771.416,1264.016h16.009l11.812-30.927h-27.82Z" transform="translate(-1771.416 -1233.089)"/><path class="i" d="M2058.6,1233.089l-11.812,30.927h27.82v-30.927Z" transform="translate(-1937.383 -1233.089)"/><path class="e" d="M1823.521,1233.089l-11.812,30.927h20.871l11.811-30.927Z" transform="translate(-1795.7 -1233.089)"/><path class="e" d="M1914.8,1233.089l-11.812,30.927h20.871l11.812-30.927Z" transform="translate(-1850.712 -1233.089)"/><path class="e" d="M2006.069,1233.089l-11.811,30.927h20.871l11.812-30.927Z" transform="translate(-1905.723 -1233.089)"/></g><rect class="c" width="103.946" height="54.465" rx="4.444" transform="translate(16.64 9.57)"/><g transform="translate(20.398 12.525)"><rect class="c" width="94.427" height="45.894" rx="3.485" transform="translate(1.001 1.001)"/><path class="b" d="M1911.213,1312.508h-80.481a7.983,7.983,0,0,1-7.974-7.973v-31.948a7.983,7.983,0,0,1,7.974-7.973h80.481a7.981,7.981,0,0,1,7.973,7.973v31.948A7.982,7.982,0,0,1,1911.213,1312.508Zm-80.481-45.894a5.979,5.979,0,0,0-5.973,5.973v31.948a5.979,5.979,0,0,0,5.973,5.972h80.481a5.979,5.979,0,0,0,5.972-5.972v-31.948a5.979,5.979,0,0,0-5.972-5.973Z" transform="translate(-1822.757 -1264.613)"/></g><g transform="translate(28.404 20.021)"><path class="b" d="M1859.887,1294.29a8.028,8.028,0,0,1-.462,2.814,5.524,5.524,0,0,1-1.361,2.1,5.907,5.907,0,0,1-2.22,1.308,9.425,9.425,0,0,1-3.039.449,9.636,9.636,0,0,1-2.894-.4,5.617,5.617,0,0,1-2.167-1.222,5.339,5.339,0,0,1-1.354-2.041,7.965,7.965,0,0,1-.469-2.861v-10.4a.387.387,0,0,1,.079-.238.563.563,0,0,1,.284-.172,2.921,2.921,0,0,1,.535-.106,7.3,7.3,0,0,1,.846-.04,7.161,7.161,0,0,1,.832.04,2.761,2.761,0,0,1,.528.106.6.6,0,0,1,.284.172.369.369,0,0,1,.086.238v10.094a5.553,5.553,0,0,0,.251,1.764,3.244,3.244,0,0,0,.72,1.235,2.982,2.982,0,0,0,1.123.733,4.149,4.149,0,0,0,1.46.244,4.034,4.034,0,0,0,1.467-.251,2.917,2.917,0,0,0,1.1-.733,3.3,3.3,0,0,0,.694-1.189,4.9,4.9,0,0,0,.244-1.605v-10.293a.387.387,0,0,1,.079-.238.559.559,0,0,1,.277-.172,2.773,2.773,0,0,1,.535-.106,7.333,7.333,0,0,1,.839-.04,6.979,6.979,0,0,1,.826.04,2.745,2.745,0,0,1,.522.106.556.556,0,0,1,.277.172.387.387,0,0,1,.08.238Z" transform="translate(-1844.724 -1283.482)"/><path class="b" d="M1904.516,1299.483a1.326,1.326,0,0,1-.106.542,1.146,1.146,0,0,1-.284.4,1.1,1.1,0,0,1-.423.231,1.726,1.726,0,0,1-.5.073h-1.479a3.029,3.029,0,0,1-.8-.093,1.591,1.591,0,0,1-.621-.337,2.953,2.953,0,0,1-.548-.661q-.264-.416-.594-1.077l-4.255-7.994q-.37-.713-.753-1.54t-.687-1.605h-.026q.053.951.079,1.9t.027,1.949v8.945a.41.41,0,0,1-.073.238.545.545,0,0,1-.251.178,1.993,1.993,0,0,1-.482.112,6.2,6.2,0,0,1-.779.04,6.068,6.068,0,0,1-.766-.04,1.88,1.88,0,0,1-.476-.112.5.5,0,0,1-.238-.178.438.438,0,0,1-.066-.238v-15.366a1.158,1.158,0,0,1,.364-.932,1.324,1.324,0,0,1,.891-.31h1.863a3.549,3.549,0,0,1,.846.086,1.741,1.741,0,0,1,.614.284,2.187,2.187,0,0,1,.509.548,7.068,7.068,0,0,1,.489.865l3.33,6.25q.291.568.575,1.116t.548,1.1q.264.548.515,1.077t.489,1.057h.013q-.039-.925-.059-1.929t-.02-1.916v-8.02a.386.386,0,0,1,.079-.238.64.64,0,0,1,.265-.185,1.734,1.734,0,0,1,.489-.112,7.425,7.425,0,0,1,.78-.033,7.112,7.112,0,0,1,.753.033,1.485,1.485,0,0,1,.469.112.536.536,0,0,1,.231.185.438.438,0,0,1,.066.238Z" transform="translate(-1871.542 -1283.522)"/><path class="b" d="M1949.485,1291.98a11.69,11.69,0,0,1-.615,4.023,6.836,6.836,0,0,1-1.763,2.729,7.079,7.079,0,0,1-2.795,1.553,13.678,13.678,0,0,1-3.918.5h-4.083a1.081,1.081,0,0,1-.733-.258,1.056,1.056,0,0,1-.3-.839v-14.9a1.056,1.056,0,0,1,.3-.839,1.081,1.081,0,0,1,.733-.257h4.387a12.263,12.263,0,0,1,3.878.535,7.025,7.025,0,0,1,2.682,1.585,6.807,6.807,0,0,1,1.658,2.6A10.358,10.358,0,0,1,1949.485,1291.98Zm-3.594.119a8.573,8.573,0,0,0-.284-2.26,4.817,4.817,0,0,0-.912-1.81,4.227,4.227,0,0,0-1.612-1.2,6.54,6.54,0,0,0-2.583-.429h-1.757v11.627h1.81a6.829,6.829,0,0,0,2.4-.37,4.015,4.015,0,0,0,1.632-1.116,4.817,4.817,0,0,0,.978-1.857A9.294,9.294,0,0,0,1945.891,1292.1Z" transform="translate(-1898.581 -1283.603)"/><path class="b" d="M1988.349,1299.418a5.206,5.206,0,0,1-.033.641,1.665,1.665,0,0,1-.1.416.533.533,0,0,1-.165.231.361.361,0,0,1-.218.073h-8.588a1.082,1.082,0,0,1-.733-.258,1.057,1.057,0,0,1-.3-.839v-14.9a1.057,1.057,0,0,1,.3-.839,1.081,1.081,0,0,1,.733-.257h8.536a.354.354,0,0,1,.211.066.509.509,0,0,1,.159.231,1.756,1.756,0,0,1,.1.423,5.267,5.267,0,0,1,.033.654,5,5,0,0,1-.033.628,1.651,1.651,0,0,1-.1.416.562.562,0,0,1-.159.231.333.333,0,0,1-.211.073h-6.1v4.175h5.167a.36.36,0,0,1,.218.073.529.529,0,0,1,.165.224,1.543,1.543,0,0,1,.1.41,6.055,6.055,0,0,1,0,1.262,1.537,1.537,0,0,1-.1.4.483.483,0,0,1-.165.218.383.383,0,0,1-.218.066h-5.167v4.823h6.157a.362.362,0,0,1,.218.073.534.534,0,0,1,.165.231,1.663,1.663,0,0,1,.1.416A5.213,5.213,0,0,1,1988.349,1299.418Z" transform="translate(-1924.458 -1283.603)"/><path class="b" d="M2024.123,1300.33a.517.517,0,0,1-.053.244.424.424,0,0,1-.251.165,2.511,2.511,0,0,1-.582.093q-.383.026-1.044.026-.555,0-.885-.026a1.973,1.973,0,0,1-.522-.1.566.566,0,0,1-.271-.185,1.041,1.041,0,0,1-.132-.271l-1.533-3.818q-.277-.648-.542-1.15a3.678,3.678,0,0,0-.588-.839,2.141,2.141,0,0,0-.747-.509,2.585,2.585,0,0,0-.978-.172h-1.083v6.514a.368.368,0,0,1-.086.238.6.6,0,0,1-.284.172,2.747,2.747,0,0,1-.529.106,8.932,8.932,0,0,1-1.684,0,2.763,2.763,0,0,1-.535-.106.559.559,0,0,1-.277-.172.386.386,0,0,1-.079-.238v-15.525a1.056,1.056,0,0,1,.3-.839,1.081,1.081,0,0,1,.733-.257h4.426q.674,0,1.11.026t.793.066a7.216,7.216,0,0,1,1.857.5,4.449,4.449,0,0,1,1.4.932,3.877,3.877,0,0,1,.879,1.361,4.977,4.977,0,0,1,.3,1.8,5.3,5.3,0,0,1-.218,1.566,4.022,4.022,0,0,1-.641,1.262,4.212,4.212,0,0,1-1.044.964,5.629,5.629,0,0,1-1.414.661,3.97,3.97,0,0,1,.72.449,3.8,3.8,0,0,1,.634.641,6.121,6.121,0,0,1,.561.859,10.951,10.951,0,0,1,.515,1.09l1.44,3.369q.2.5.264.733A1.413,1.413,0,0,1,2024.123,1300.33Zm-4.479-11.6a2.537,2.537,0,0,0-.383-1.427,2.082,2.082,0,0,0-1.255-.819,4.847,4.847,0,0,0-.6-.106,8.521,8.521,0,0,0-.932-.04h-1.559v4.849h1.77a4.227,4.227,0,0,0,1.295-.178,2.578,2.578,0,0,0,.925-.5,2.055,2.055,0,0,0,.555-.773A2.61,2.61,0,0,0,2019.643,1288.729Z" transform="translate(-1944.481 -1283.603)"/><g transform="translate(0 20.261)"><path class="b" d="M1849.077,1341.726c0,.107,0,.2-.01.274a1.335,1.335,0,0,1-.029.193.548.548,0,0,1-.052.139.674.674,0,0,1-.1.132,1.308,1.308,0,0,1-.274.19,3.237,3.237,0,0,1-.5.223,4.331,4.331,0,0,1-.671.177,4.416,4.416,0,0,1-.815.071,4.291,4.291,0,0,1-1.547-.265,3.052,3.052,0,0,1-1.173-.79,3.533,3.533,0,0,1-.741-1.312,5.882,5.882,0,0,1-.258-1.831,5.8,5.8,0,0,1,.284-1.889,3.926,3.926,0,0,1,.793-1.386,3.316,3.316,0,0,1,1.221-.851,4.119,4.119,0,0,1,1.57-.29,3.747,3.747,0,0,1,.67.058,4.042,4.042,0,0,1,.6.151,2.968,2.968,0,0,1,.493.216,1.467,1.467,0,0,1,.306.209.723.723,0,0,1,.119.145.536.536,0,0,1,.052.148,1.583,1.583,0,0,1,.029.213q.01.122.01.3c0,.129,0,.239-.013.329a.832.832,0,0,1-.045.219.3.3,0,0,1-.077.123.155.155,0,0,1-.1.039.446.446,0,0,1-.245-.113,4.084,4.084,0,0,0-.384-.251,3.163,3.163,0,0,0-.561-.251,2.387,2.387,0,0,0-.777-.112,1.836,1.836,0,0,0-1.55.783,2.727,2.727,0,0,0-.416.912,5.312,5.312,0,0,0,.01,2.479,2.457,2.457,0,0,0,.432.886,1.746,1.746,0,0,0,.677.519,2.23,2.23,0,0,0,.893.171,2.548,2.548,0,0,0,.78-.106,3.281,3.281,0,0,0,.564-.236q.235-.129.387-.232a.478.478,0,0,1,.235-.1.179.179,0,0,1,.1.026.194.194,0,0,1,.065.1,1.026,1.026,0,0,1,.038.216C1849.073,1341.448,1849.077,1341.571,1849.077,1341.726Z" transform="translate(-1842.908 -1334.5)"/><path class="b" d="M1868.166,1338.7a6.184,6.184,0,0,1-.258,1.857,3.747,3.747,0,0,1-.767,1.389,3.3,3.3,0,0,1-1.26.87,4.671,4.671,0,0,1-1.737.3,5.13,5.13,0,0,1-1.7-.255,2.943,2.943,0,0,1-1.209-.777,3.324,3.324,0,0,1-.725-1.328,6.691,6.691,0,0,1-.241-1.908,5.98,5.98,0,0,1,.258-1.821,3.72,3.72,0,0,1,.767-1.376,3.339,3.339,0,0,1,1.26-.87,4.629,4.629,0,0,1,1.744-.3,5.1,5.1,0,0,1,1.673.251,2.942,2.942,0,0,1,1.212.774,3.366,3.366,0,0,1,.735,1.318A6.348,6.348,0,0,1,1868.166,1338.7Zm-1.779.09a6.372,6.372,0,0,0-.1-1.2,2.573,2.573,0,0,0-.351-.922,1.68,1.68,0,0,0-.661-.593,2.271,2.271,0,0,0-1.031-.209,2.109,2.109,0,0,0-1.045.235,1.921,1.921,0,0,0-.677.629,2.6,2.6,0,0,0-.364.918,5.59,5.59,0,0,0-.106,1.112,6.635,6.635,0,0,0,.1,1.228,2.645,2.645,0,0,0,.348.931,1.6,1.6,0,0,0,.658.59,2.341,2.341,0,0,0,1.038.2,2.134,2.134,0,0,0,1.044-.232,1.868,1.868,0,0,0,.677-.632,2.663,2.663,0,0,0,.364-.932A5.769,5.769,0,0,0,1866.386,1338.793Z" transform="translate(-1853.371 -1334.48)"/><path class="b" d="M1890.608,1342.563a.647.647,0,0,1-.052.264.562.562,0,0,1-.139.193.533.533,0,0,1-.206.113.839.839,0,0,1-.242.035h-.722a1.5,1.5,0,0,1-.39-.045.781.781,0,0,1-.3-.164,1.433,1.433,0,0,1-.267-.322q-.129-.2-.291-.526l-2.075-3.9q-.181-.348-.367-.751t-.335-.783h-.013q.026.464.039.925t.013.951v4.364a.2.2,0,0,1-.035.116.27.27,0,0,1-.123.087.977.977,0,0,1-.235.054,2.987,2.987,0,0,1-.38.02,2.916,2.916,0,0,1-.374-.02.919.919,0,0,1-.232-.054.243.243,0,0,1-.116-.087.212.212,0,0,1-.033-.116v-7.5a.564.564,0,0,1,.178-.455.647.647,0,0,1,.435-.152h.909a1.732,1.732,0,0,1,.412.042.851.851,0,0,1,.3.139,1.071,1.071,0,0,1,.248.267,3.4,3.4,0,0,1,.238.422l1.625,3.049q.142.277.28.545t.267.535q.129.268.251.525t.238.516h.007q-.02-.451-.029-.941t-.01-.935v-3.913a.189.189,0,0,1,.039-.116.315.315,0,0,1,.129-.09.852.852,0,0,1,.238-.055,3.657,3.657,0,0,1,.381-.016,3.5,3.5,0,0,1,.368.016.728.728,0,0,1,.229.055.264.264,0,0,1,.113.09.213.213,0,0,1,.032.116Z" transform="translate(-1867.511 -1334.666)"/><path class="b" d="M1909.907,1335.55a2.717,2.717,0,0,1-.016.319.873.873,0,0,1-.048.213.284.284,0,0,1-.081.12.168.168,0,0,1-.106.039h-2.089v6.723a.18.18,0,0,1-.042.116.3.3,0,0,1-.139.084,1.342,1.342,0,0,1-.261.051,4.3,4.3,0,0,1-.819,0,1.346,1.346,0,0,1-.261-.051.3.3,0,0,1-.139-.084.18.18,0,0,1-.042-.116v-6.723h-2.089a.165.165,0,0,1-.11-.039.3.3,0,0,1-.077-.12.868.868,0,0,1-.048-.213,2.688,2.688,0,0,1-.016-.319,2.84,2.84,0,0,1,.016-.329.876.876,0,0,1,.048-.216.271.271,0,0,1,.077-.116.172.172,0,0,1,.11-.036h5.879a.175.175,0,0,1,.106.036.257.257,0,0,1,.081.116.881.881,0,0,1,.048.216A2.871,2.871,0,0,1,1909.907,1335.55Z" transform="translate(-1879.442 -1334.705)"/><path class="b" d="M1928.259,1342.975a.252.252,0,0,1-.026.119.208.208,0,0,1-.123.081,1.218,1.218,0,0,1-.284.045q-.186.013-.509.013-.271,0-.432-.013a.952.952,0,0,1-.255-.048.273.273,0,0,1-.132-.09.5.5,0,0,1-.064-.132l-.748-1.863q-.135-.316-.265-.561a1.789,1.789,0,0,0-.287-.41,1.042,1.042,0,0,0-.364-.248,1.258,1.258,0,0,0-.477-.084h-.528v3.178a.18.18,0,0,1-.042.116.294.294,0,0,1-.139.084,1.339,1.339,0,0,1-.258.051,4.33,4.33,0,0,1-.822,0,1.356,1.356,0,0,1-.261-.051.273.273,0,0,1-.135-.084.189.189,0,0,1-.039-.116v-7.574a.515.515,0,0,1,.145-.409.528.528,0,0,1,.358-.126h2.159q.329,0,.542.013t.387.032a3.506,3.506,0,0,1,.905.245,2.174,2.174,0,0,1,.683.454,1.889,1.889,0,0,1,.429.664,2.424,2.424,0,0,1,.148.88,2.6,2.6,0,0,1-.106.764,1.967,1.967,0,0,1-.313.616,2.059,2.059,0,0,1-.509.47,2.757,2.757,0,0,1-.69.322,1.931,1.931,0,0,1,.351.219,1.847,1.847,0,0,1,.31.313,3.06,3.06,0,0,1,.274.419,5.4,5.4,0,0,1,.251.532l.7,1.644q.1.246.129.358A.7.7,0,0,1,1928.259,1342.975Zm-2.186-5.66a1.241,1.241,0,0,0-.187-.7,1.018,1.018,0,0,0-.613-.4,2.369,2.369,0,0,0-.293-.052,4.145,4.145,0,0,0-.454-.019h-.76v2.366h.864a2.065,2.065,0,0,0,.632-.087,1.264,1.264,0,0,0,.451-.245,1,1,0,0,0,.271-.377A1.279,1.279,0,0,0,1926.073,1337.315Z" transform="translate(-1890.619 -1334.705)"/><path class="b" d="M1947.576,1340.029a3.919,3.919,0,0,1-.226,1.373,2.7,2.7,0,0,1-.664,1.025,2.882,2.882,0,0,1-1.083.638,4.6,4.6,0,0,1-1.483.219,4.7,4.7,0,0,1-1.412-.2,2.741,2.741,0,0,1-1.057-.6,2.6,2.6,0,0,1-.661-1,3.887,3.887,0,0,1-.229-1.4v-5.073a.187.187,0,0,1,.039-.116.27.27,0,0,1,.139-.084,1.414,1.414,0,0,1,.261-.052,3.51,3.51,0,0,1,.412-.02,3.448,3.448,0,0,1,.406.02,1.343,1.343,0,0,1,.258.052.294.294,0,0,1,.139.084.179.179,0,0,1,.042.116v4.925a2.713,2.713,0,0,0,.122.86,1.589,1.589,0,0,0,.352.6,1.454,1.454,0,0,0,.548.358,2.025,2.025,0,0,0,.712.119,1.966,1.966,0,0,0,.716-.122,1.425,1.425,0,0,0,.535-.358,1.61,1.61,0,0,0,.339-.58,2.39,2.39,0,0,0,.119-.783v-5.021a.187.187,0,0,1,.039-.116.267.267,0,0,1,.135-.084,1.347,1.347,0,0,1,.261-.052,3.535,3.535,0,0,1,.41-.02,3.36,3.36,0,0,1,.4.02,1.336,1.336,0,0,1,.255.052.269.269,0,0,1,.135.084.187.187,0,0,1,.039.116Z" transform="translate(-1901.885 -1334.646)"/><path class="b" d="M1967.634,1341.726c0,.107,0,.2-.01.274a1.286,1.286,0,0,1-.029.193.548.548,0,0,1-.052.139.676.676,0,0,1-.1.132,1.3,1.3,0,0,1-.274.19,3.241,3.241,0,0,1-.5.223,4.337,4.337,0,0,1-.671.177,4.414,4.414,0,0,1-.815.071,4.29,4.29,0,0,1-1.547-.265,3.056,3.056,0,0,1-1.173-.79,3.533,3.533,0,0,1-.741-1.312,5.878,5.878,0,0,1-.258-1.831,5.8,5.8,0,0,1,.284-1.889,3.924,3.924,0,0,1,.793-1.386,3.315,3.315,0,0,1,1.221-.851,4.122,4.122,0,0,1,1.57-.29,3.756,3.756,0,0,1,.671.058,4.047,4.047,0,0,1,.6.151,2.987,2.987,0,0,1,.494.216,1.48,1.48,0,0,1,.306.209.732.732,0,0,1,.119.145.52.52,0,0,1,.052.148,1.6,1.6,0,0,1,.029.213c.006.081.01.182.01.3s0,.239-.013.329a.839.839,0,0,1-.045.219.3.3,0,0,1-.078.123.155.155,0,0,1-.1.039.447.447,0,0,1-.245-.113,4.117,4.117,0,0,0-.384-.251,3.148,3.148,0,0,0-.561-.251,2.386,2.386,0,0,0-.777-.112,1.836,1.836,0,0,0-1.551.783,2.727,2.727,0,0,0-.416.912,5.312,5.312,0,0,0,.01,2.479,2.461,2.461,0,0,0,.432.886,1.749,1.749,0,0,0,.677.519,2.231,2.231,0,0,0,.893.171,2.545,2.545,0,0,0,.78-.106,3.274,3.274,0,0,0,.564-.236q.235-.129.387-.232a.478.478,0,0,1,.235-.1.179.179,0,0,1,.1.026.194.194,0,0,1,.065.1,1.034,1.034,0,0,1,.038.216Q1967.634,1341.494,1967.634,1341.726Z" transform="translate(-1914.362 -1334.5)"/><path class="b" d="M1984.51,1335.55a2.7,2.7,0,0,1-.016.319.861.861,0,0,1-.048.213.286.286,0,0,1-.081.12.168.168,0,0,1-.107.039h-2.089v6.723a.18.18,0,0,1-.042.116.3.3,0,0,1-.139.084,1.343,1.343,0,0,1-.261.051,4.3,4.3,0,0,1-.819,0,1.359,1.359,0,0,1-.261-.051.3.3,0,0,1-.139-.084.18.18,0,0,1-.042-.116v-6.723h-2.089a.165.165,0,0,1-.11-.039.3.3,0,0,1-.077-.12.843.843,0,0,1-.049-.213,2.691,2.691,0,0,1-.016-.319,2.843,2.843,0,0,1,.016-.329.852.852,0,0,1,.049-.216.273.273,0,0,1,.077-.116.172.172,0,0,1,.11-.036h5.879a.175.175,0,0,1,.107.036.258.258,0,0,1,.081.116.869.869,0,0,1,.048.216A2.85,2.85,0,0,1,1984.51,1335.55Z" transform="translate(-1924.405 -1334.705)"/><path class="b" d="M1998.376,1342.9a.181.181,0,0,1-.042.116.3.3,0,0,1-.139.084,1.351,1.351,0,0,1-.258.051,4.334,4.334,0,0,1-.822,0,1.342,1.342,0,0,1-.261-.051.3.3,0,0,1-.139-.084.18.18,0,0,1-.042-.116v-7.877a.179.179,0,0,1,.042-.116.292.292,0,0,1,.142-.084,1.42,1.42,0,0,1,.261-.052,3.445,3.445,0,0,1,.406-.02,3.519,3.519,0,0,1,.413.02,1.347,1.347,0,0,1,.258.052.3.3,0,0,1,.139.084.179.179,0,0,1,.042.116Z" transform="translate(-1935.583 -1334.646)"/><path class="b" d="M2012.44,1338.7a6.184,6.184,0,0,1-.258,1.857,3.75,3.75,0,0,1-.767,1.389,3.3,3.3,0,0,1-1.26.87,4.671,4.671,0,0,1-1.737.3,5.13,5.13,0,0,1-1.7-.255,2.943,2.943,0,0,1-1.209-.777,3.324,3.324,0,0,1-.725-1.328,6.686,6.686,0,0,1-.242-1.908,5.983,5.983,0,0,1,.258-1.821,3.713,3.713,0,0,1,.767-1.376,3.338,3.338,0,0,1,1.26-.87,4.63,4.63,0,0,1,1.744-.3,5.1,5.1,0,0,1,1.673.251,2.941,2.941,0,0,1,1.212.774,3.371,3.371,0,0,1,.735,1.318A6.348,6.348,0,0,1,2012.44,1338.7Zm-1.78.09a6.393,6.393,0,0,0-.1-1.2,2.577,2.577,0,0,0-.351-.922,1.68,1.68,0,0,0-.661-.593,2.272,2.272,0,0,0-1.032-.209,2.109,2.109,0,0,0-1.044.235,1.922,1.922,0,0,0-.677.629,2.6,2.6,0,0,0-.364.918,5.59,5.59,0,0,0-.106,1.112,6.593,6.593,0,0,0,.1,1.228,2.643,2.643,0,0,0,.348.931,1.6,1.6,0,0,0,.657.59,2.342,2.342,0,0,0,1.038.2,2.134,2.134,0,0,0,1.044-.232,1.871,1.871,0,0,0,.677-.632,2.668,2.668,0,0,0,.364-.932A5.788,5.788,0,0,0,2010.66,1338.793Z" transform="translate(-1940.326 -1334.48)"/><path class="b" d="M2034.883,1342.563a.647.647,0,0,1-.052.264.559.559,0,0,1-.139.193.532.532,0,0,1-.206.113.838.838,0,0,1-.242.035h-.722a1.5,1.5,0,0,1-.39-.045.779.779,0,0,1-.3-.164,1.44,1.44,0,0,1-.267-.322q-.129-.2-.29-.526l-2.076-3.9q-.181-.348-.368-.751t-.335-.783h-.013q.025.464.038.925t.013.951v4.364a.2.2,0,0,1-.036.116.266.266,0,0,1-.122.087.977.977,0,0,1-.235.054,2.982,2.982,0,0,1-.38.02,2.914,2.914,0,0,1-.374-.02.92.92,0,0,1-.232-.054.249.249,0,0,1-.116-.087.216.216,0,0,1-.032-.116v-7.5a.564.564,0,0,1,.178-.455.647.647,0,0,1,.435-.152h.909a1.733,1.733,0,0,1,.413.042.848.848,0,0,1,.3.139,1.069,1.069,0,0,1,.248.267,3.419,3.419,0,0,1,.238.422l1.625,3.049q.142.277.281.545t.267.535q.129.268.251.525t.239.516h.007q-.019-.451-.029-.941t-.01-.935v-3.913a.189.189,0,0,1,.039-.116.313.313,0,0,1,.129-.09.852.852,0,0,1,.238-.055,3.655,3.655,0,0,1,.381-.016,3.5,3.5,0,0,1,.367.016.731.731,0,0,1,.229.055.263.263,0,0,1,.112.09.211.211,0,0,1,.033.116Z" transform="translate(-1954.466 -1334.666)"/></g></g></g><g transform="translate(335.901 161.684)"><path class="o" d="M2119.619,1277.438l-1.776-.241s.336-3.662-.415-4.163-1.129-.493-1.177.045c-.076.844-.126,3.458-.2,4.83a22.139,22.139,0,0,0,.085,2.908s.283.3,1.083,0a7.206,7.206,0,0,1,2.669.066Z" transform="translate(-2116.033 -1240.474)"/><path class="i" d="M2158.621,1259c2.381-.693,4.861,1.821,4.725,4.812a4.043,4.043,0,0,1-3.162,4.076c-3.639.969-16.2,4.25-16.2,4.25l-19.889,1.148-1.07-4.339,19.63-2.936,15.866-6.981S2158.559,1259.013,2158.621,1259Z" transform="translate(-2120.25 -1232.165)"/><path class="j" d="M2253.331,1346.048c.1.474,9.255,33.675,9.255,33.675l23.945,21.188-4.209,3.918L2256.2,1386.4l-15.592-29.939Z" transform="translate(-2191.115 -1284.702)"/><path class="o" d="M2120.689,1245l-1.776-.241s.336-3.662-.415-4.163-1.129-.493-1.178.044c-.076.845-.126,3.458-.2,4.83a22.21,22.21,0,0,0,.084,2.908s.283.3,1.083,0a7.208,7.208,0,0,1,2.67.066Z" transform="translate(-2116.678 -1220.925)"/><g transform="translate(22.503 1.747)"><path class="o" d="M2195.5,1236.344l2.613.7,2.8-2.312-1.2-3.034-4.106,4.629Z" transform="translate(-2186.433 -1217.532)"/><path class="p" d="M2173.953,1198.527a6.87,6.87,0,0,1,6.16-2.476c1.28.066,2.17-.145,3.341.376,1.95.867,3.125,1.61,3.842,3.617a8.336,8.336,0,0,1,.356,1.8l.417,3.4a10.433,10.433,0,0,1,.073,3.049c-.152.878.488,1.175.118,1.986a3.616,3.616,0,0,1-.87,1.339,3.469,3.469,0,0,1-2.557.481,7.246,7.246,0,0,1-3.716-1.1c-1.22-.9-1.839-2.395-2.924-3.449-.878-.853-1.792-.076-2.908-.582-.258-.117-.568-.833-.841-.754-.437.127-.668-.352-1.055-.538-.225-.108-.453-.741-.714-.931Z" transform="translate(-2172.674 -1196.036)"/><path class="o" d="M2185.857,1222.132a6.585,6.585,0,0,0-.757-1.118,5.977,5.977,0,0,1-1.052-2.542c-.1-.655-.1-1.325-.217-1.978a2.789,2.789,0,0,0-.9-1.729,1.443,1.443,0,0,0-1.825-.035,1.786,1.786,0,0,0-.189,1.966,16.786,16.786,0,0,1,.9,1.9,23.73,23.73,0,0,1-2.323-2.324l-.053,0c-.014,0-.024,0-.038,0a6.4,6.4,0,0,1-.539.482.276.276,0,0,1-.027.021,2.2,2.2,0,0,1-.911.484,11.583,11.583,0,0,1-2.737-.579.4.4,0,0,0-.391.112,2.693,2.693,0,0,0-.029,1.176,6.52,6.52,0,0,0,1.167,1.8l1.01,3.145a1.483,1.483,0,0,0,.313.617c.3.3.778.287,1.178.423,1.272.434,1.669,2.328,2.99,2.575.938.176,1.762-.6,2.406-1.3l1.988-2.179C2186.132,1222.714,2186.04,1222.544,2185.857,1222.132Z" transform="translate(-2173.909 -1207.117)"/></g><path class="o" d="M2265.522,1500.448l1.78,2.2c.2-.187,2.943-2.383,2.943-2.383l-1.78-2.2Z" transform="translate(-2206.13 -1376.323)"/><g transform="translate(55.06 123.665)"><path class="b" d="M2259.556,1505.189s-3.92,8.279-4.008,8.44c-.039.072-.3.4-.58.738a1.427,1.427,0,0,0-.065,1.786,1.454,1.454,0,0,0,.308.333c.139.041,12.431-9.72,12.431-9.72s-2.817-4.2-3.593-3.841S2261.451,1505.557,2259.556,1505.189Z" transform="translate(-2254.62 -1502.904)"/><g transform="translate(1.591 7.025)"><path class="e" d="M2261,1520.586l1.405.6-.226.533-1.427-.6Z" transform="translate(-2259.91 -1520.586)"/><path class="e" d="M2259.908,1522.909l1.343.569-.226.533-1.364-.578Z" transform="translate(-2259.249 -1521.986)"/><path class="e" d="M2258.872,1525.106l1.292.548-.226.533-1.314-.557Z" transform="translate(-2258.625 -1523.31)"/></g></g><path class="o" d="M2346.145,1488.463l1.78,2.2c.2-.187,2.943-2.383,2.943-2.383l-1.78-2.2Z" transform="translate(-2254.722 -1369.099)"/><g transform="translate(87.092 118.903)"><path class="b" d="M2340.178,1493.2s-3.919,8.278-4.008,8.44c-.039.072-.3.4-.58.739a1.512,1.512,0,0,0,.243,2.118c.139.041,12.432-9.72,12.432-9.72s-2.817-4.2-3.593-3.841S2342.074,1493.572,2340.178,1493.2Z" transform="translate(-2335.243 -1490.919)"/><g transform="translate(1.591 7.025)"><path class="e" d="M2341.627,1508.6l1.405.6-.226.533-1.427-.6Z" transform="translate(-2340.532 -1508.601)"/><path class="e" d="M2340.531,1510.925l1.343.569-.226.533-1.364-.578Z" transform="translate(-2339.872 -1510.001)"/><path class="e" d="M2339.495,1513.121l1.292.548-.226.533-1.314-.557Z" transform="translate(-2339.247 -1511.325)"/></g></g><path class="j" d="M2222.435,1340.588s4.2,7.657-1.754,13.027-18.273,23.689-18.273,23.689l22.784,25.687-5.8,3.338-29.024-26.992,13.932-33.959Z" transform="translate(-2160.832 -1281.411)"/><path class="i" d="M2210.054,1243.778c-3.456-4.89-6.55-6.1-9.281-6.621a13.221,13.221,0,0,1-3.153,3.345,8.993,8.993,0,0,1-1.532.88,25.415,25.415,0,0,0-.746,8.034c.475,3.8,11.407,34.062,11.407,34.062l19.8-5.228S2214.556,1250.149,2210.054,1243.778Z" transform="translate(-2163.782 -1219.073)"/><path class="i" d="M2163.067,1249.375c2.478-.1,4.283,2.932,3.436,5.8a4.043,4.043,0,0,1-4.046,3.2c-3.766.069-16.743.249-16.743.249l-19.585-3.647v-4.469l19.762,1.849,17.076-2.979S2163,1249.378,2163.067,1249.375Z" transform="translate(-2122.118 -1226.435)"/><path class="c" d="M2180.717,1200.981l-17.786,5.508s-1.052-1.526,1.747-2.577-1.714-5.078,3.348-9.649a9.223,9.223,0,0,1,12.017-.742c1.492,1.306,2.822,6.991,2.822,6.991Z" transform="translate(-2144.182 -1191.64)"/></g><g transform="translate(303.209 136.151)"><g transform="translate(0 9.614)"><rect class="b" width="62.177" height="4.614" transform="translate(1.348 0.939)"/><path class="b" d="M2130.182,1157.986H2036.8a3.057,3.057,0,0,1-3.054-3.054v-.3a3.057,3.057,0,0,1,3.054-3.054h93.38a3.058,3.058,0,0,1,3.054,3.054v.3A3.058,3.058,0,0,1,2130.182,1157.986Zm-93.38-5.055a1.7,1.7,0,0,0-1.7,1.7v.3a1.7,1.7,0,0,0,1.7,1.7h93.38a1.7,1.7,0,0,0,1.7-1.7v-.3a1.7,1.7,0,0,0-1.7-1.7Z" transform="translate(-2033.748 -1151.573)"/></g><g transform="translate(35.248 0)"><path class="b" d="M2127.41,1131.2a2.842,2.842,0,0,1-.164,1,1.952,1.952,0,0,1-.482.743,2.092,2.092,0,0,1-.786.463,3.334,3.334,0,0,1-1.075.159,3.416,3.416,0,0,1-1.025-.143,1.982,1.982,0,0,1-.767-.433,1.892,1.892,0,0,1-.48-.723,2.814,2.814,0,0,1-.166-1.012v-3.681a.136.136,0,0,1,.028-.084.2.2,0,0,1,.1-.061,1.03,1.03,0,0,1,.19-.037,2.546,2.546,0,0,1,.3-.014,2.508,2.508,0,0,1,.295.014.978.978,0,0,1,.187.037.214.214,0,0,1,.1.061.13.13,0,0,1,.03.084v3.573a1.958,1.958,0,0,0,.089.624,1.143,1.143,0,0,0,.255.438,1.05,1.05,0,0,0,.4.259,1.461,1.461,0,0,0,.517.087,1.429,1.429,0,0,0,.519-.089,1.035,1.035,0,0,0,.388-.26,1.165,1.165,0,0,0,.246-.421,1.744,1.744,0,0,0,.086-.569v-3.643a.137.137,0,0,1,.028-.084.2.2,0,0,1,.1-.061.968.968,0,0,1,.189-.037,2.582,2.582,0,0,1,.3-.014,2.446,2.446,0,0,1,.292.014.972.972,0,0,1,.185.037.2.2,0,0,1,.1.061.138.138,0,0,1,.028.084Z" transform="translate(-2122.466 -1127.374)"/><path class="b" d="M2142.362,1129.283a2.4,2.4,0,0,1-.159.9,1.74,1.74,0,0,1-.463.661,2.035,2.035,0,0,1-.746.409,3.446,3.446,0,0,1-1.041.141h-.5v1.931a.129.129,0,0,1-.031.084.215.215,0,0,1-.1.061.993.993,0,0,1-.187.037,3.2,3.2,0,0,1-.6,0,1,1,0,0,1-.189-.037.2.2,0,0,1-.1-.061.135.135,0,0,1-.028-.084v-5.444a.438.438,0,0,1,.115-.33.418.418,0,0,1,.3-.11h1.426c.144,0,.28.005.409.016a4.218,4.218,0,0,1,.466.07,2.059,2.059,0,0,1,.549.2,1.633,1.633,0,0,1,.475.367,1.531,1.531,0,0,1,.3.519A2.019,2.019,0,0,1,2142.362,1129.283Zm-1.286.089a1.087,1.087,0,0,0-.112-.524.774.774,0,0,0-.276-.3.917.917,0,0,0-.344-.124,2.634,2.634,0,0,0-.372-.025h-.524v2.053H2140a1.34,1.34,0,0,0,.494-.079.846.846,0,0,0,.325-.223.959.959,0,0,0,.192-.341A1.374,1.374,0,0,0,2141.076,1129.372Z" transform="translate(-2131.96 -1127.417)"/><path class="b" d="M2156.078,1130.382a4.14,4.14,0,0,1-.218,1.424,2.416,2.416,0,0,1-.625.966,2.5,2.5,0,0,1-.989.549,4.842,4.842,0,0,1-1.386.175h-1.445a.381.381,0,0,1-.26-.091.373.373,0,0,1-.105-.3v-5.276a.374.374,0,0,1,.105-.3.381.381,0,0,1,.26-.091h1.552a4.338,4.338,0,0,1,1.373.19,2.482,2.482,0,0,1,.95.561,2.41,2.41,0,0,1,.587.919A3.665,3.665,0,0,1,2156.078,1130.382Zm-1.272.042a3.033,3.033,0,0,0-.1-.8,1.706,1.706,0,0,0-.323-.641,1.5,1.5,0,0,0-.571-.423,2.311,2.311,0,0,0-.914-.152h-.622v4.116h.641a2.413,2.413,0,0,0,.851-.131,1.419,1.419,0,0,0,.578-.4,1.7,1.7,0,0,0,.346-.657A3.275,3.275,0,0,0,2154.806,1130.424Z" transform="translate(-2139.694 -1127.417)"/><path class="b" d="M2169.82,1133a1.592,1.592,0,0,1,.07.267.16.16,0,0,1-.037.147.306.306,0,0,1-.182.061c-.087.008-.207.011-.36.011s-.283,0-.371-.007a.939.939,0,0,1-.2-.028.183.183,0,0,1-.1-.059.311.311,0,0,1-.047-.1l-.407-1.216h-2.273l-.383,1.184a.388.388,0,0,1-.049.11.2.2,0,0,1-.1.07.7.7,0,0,1-.192.035q-.124.01-.325.01a3.143,3.143,0,0,1-.337-.014.259.259,0,0,1-.168-.068.184.184,0,0,1-.032-.152,1.513,1.513,0,0,1,.07-.262l1.866-5.37a.468.468,0,0,1,.066-.128.227.227,0,0,1,.119-.075.951.951,0,0,1,.227-.033q.145-.007.384-.007.276,0,.44.007a1.192,1.192,0,0,1,.255.033.244.244,0,0,1,.131.077.447.447,0,0,1,.068.141Zm-2.778-4.439h0l-.856,2.573h1.716Z" transform="translate(-2147.692 -1127.374)"/><path class="b" d="M2181.521,1127.95a2.006,2.006,0,0,1-.011.232.626.626,0,0,1-.035.154.2.2,0,0,1-.058.087.123.123,0,0,1-.077.028h-1.515v4.878a.129.129,0,0,1-.031.084.215.215,0,0,1-.1.061,1,1,0,0,1-.189.037,3.176,3.176,0,0,1-.594,0,1.012,1.012,0,0,1-.189-.037.217.217,0,0,1-.1-.061.129.129,0,0,1-.03-.084v-4.878h-1.516a.12.12,0,0,1-.08-.028.218.218,0,0,1-.056-.087.629.629,0,0,1-.035-.154,1.891,1.891,0,0,1-.012-.232,2,2,0,0,1,.012-.238.642.642,0,0,1,.035-.157.2.2,0,0,1,.056-.084.125.125,0,0,1,.08-.026h4.266a.128.128,0,0,1,.077.026.188.188,0,0,1,.058.084.639.639,0,0,1,.035.157A2.12,2.12,0,0,1,2181.521,1127.95Z" transform="translate(-2155.267 -1127.417)"/><path class="b" d="M2193.934,1133.015a1.807,1.807,0,0,1-.013.227.6.6,0,0,1-.034.147.191.191,0,0,1-.059.082.125.125,0,0,1-.076.026h-3.041a.384.384,0,0,1-.26-.091.375.375,0,0,1-.105-.3v-5.276a.376.376,0,0,1,.105-.3.384.384,0,0,1,.26-.091h3.022a.127.127,0,0,1,.075.023.179.179,0,0,1,.056.082.634.634,0,0,1,.034.15,1.9,1.9,0,0,1,.012.231,1.811,1.811,0,0,1-.012.222.6.6,0,0,1-.034.147.2.2,0,0,1-.056.082.119.119,0,0,1-.075.026h-2.161v1.478h1.829a.126.126,0,0,1,.076.026.189.189,0,0,1,.059.079.558.558,0,0,1,.034.145,2.049,2.049,0,0,1,0,.447.554.554,0,0,1-.034.143.172.172,0,0,1-.059.077.132.132,0,0,1-.076.023h-1.829v1.707h2.18a.126.126,0,0,1,.076.026.189.189,0,0,1,.059.082.6.6,0,0,1,.034.147A1.8,1.8,0,0,1,2193.934,1133.015Z" transform="translate(-2163.377 -1127.417)"/></g></g></svg>